<svg width="127" height="32" viewBox="0 0 127 32" fill="none" xmlns="http://www.w3.org/2000/svg">
<path d="M79.1791 31.994C87.9816 31.994 95.1174 24.8319 95.1174 15.997C95.1174 7.1621 87.9816 0 79.1791 0C70.3766 0 63.2407 7.1621 63.2407 15.997C63.2407 24.8319 70.3766 31.994 79.1791 31.994Z" fill="#1160F9"/>
<path d="M111.062 31.994C119.864 31.994 127 24.8319 127 15.997C127 7.1621 119.864 0 111.062 0C102.259 0 95.1233 7.1621 95.1233 15.997C95.1233 24.8319 102.259 31.994 111.062 31.994Z" fill="#1160F9"/>
<path d="M29.748 11.0656V0H17.8941H3.55378H0V32H3.55378H17.8941H29.748V21.1019H17.8941V19.1449H24.2504V12.8551H17.8941V11.0656H29.748Z" fill="#1160F9"/>
<path d="M47.2963 0H31.3579V32H47.2963C56.0972 32 63.2346 24.8364 63.2346 16.003C63.2346 7.16963 56.1032 0 47.2963 0Z" fill="#1160F9"/>
</svg>
