<svg xmlns="http://www.w3.org/2000/svg" version="1.1" xmlns:xlink="http://www.w3.org/1999/xlink" xmlns:svgjs="http://svgjs.dev/svgjs" width="1000" height="1000" viewBox="0 0 1000 1000"><rect width="1000" height="1000" fill="#ffffff"></rect><g transform="matrix(0.7,0,0,0.7,149.57575757575756,282.1265587044535)"><svg viewBox="0 0 396 247" data-background-color="#ffffff" preserveAspectRatio="xMidYMid meet" height="623" width="1000" xmlns="http://www.w3.org/2000/svg" xmlns:xlink="http://www.w3.org/1999/xlink"><g id="tight-bounds" transform="matrix(1,0,0,1,0.2400000000000091,-0.09999999999999432)"><svg viewBox="0 0 395.52 247.2" height="247.2" width="395.52"><g><svg></svg></g><g><svg viewBox="0 0 395.52 247.2" height="247.2" width="395.52"><g transform="matrix(1,0,0,1,39.55199999999999,100.16488877090522)"><svg viewBox="0 0 316.416 46.870222458189545" height="46.870222458189545" width="316.416"><g><svg viewBox="0 0 316.416 46.870222458189545" height="46.870222458189545" width="316.416"><g><svg viewBox="0 0 316.416 46.870222458189545" height="46.870222458189545" width="316.416"><g><svg viewBox="0 0 316.416 46.870222458189545" height="46.870222458189545" width="316.416"><g id="textblocktransform"><svg viewBox="0 0 316.416 46.870222458189545" height="46.870222458189545" width="316.416" id="textblock"><g><svg viewBox="0 0 316.416 46.870222458189545" height="46.870222458189545" width="316.416"><g transform="matrix(1,0,0,1,0,0)"><svg width="316.416" viewBox="4.369999885559082 -31.610000610351562 216.47000122070312 32.06999969482422" height="46.870222458189545" data-palette-color="#ee3e38"><path d="M4.37-1.9L4.37-29.43Q4.37-30.57 5.63-31.21L5.63-31.21Q5.98-31.38 6.38-31.38L6.38-31.38 15.75-31.38Q23.33-31.38 25.98-27.36L25.98-27.36Q26.9-25.69 26.9-23.13 26.9-20.57 25.23-18.79 23.56-17.01 20.46-16.38L20.46-16.38 20.46-16.21Q23.45-15.69 24.71-13.97L24.71-13.97Q25.69-12.53 25.95-10.11 26.21-7.7 26.38-6.32L26.38-6.32Q26.55-4.31 26.72-1.9L26.72-1.9Q26.72-0.92 26.12-0.46 25.52 0 24.77 0 24.02 0 23.45-0.43 22.87-0.86 22.76-1.72L22.76-1.72Q22.53-4.37 22.36-6.41 22.18-8.45 21.95-9.86 21.72-11.26 21.32-12.18 20.92-13.1 20.23-13.62L20.23-13.62Q19.08-14.48 15.69-14.6L15.69-14.6 8.28-14.6 8.28-1.9Q8.28-0.52 7.07-0.11L7.07-0.11Q6.72 0 6.18 0 5.63 0 5-0.46 4.37-0.92 4.37-1.9L4.37-1.9ZM8.28-17.59L14.02-17.59Q19.48-17.59 21.38-19.31L21.38-19.31Q22.76-20.52 22.87-22.93L22.87-22.93Q22.87-26.32 20.34-27.41L20.34-27.41Q18.97-28.1 17.59-28.19 16.21-28.28 15.4-28.28L15.4-28.28 8.28-28.28 8.28-17.59ZM37.96-20.2Q37.41-17.82 37.41-15.55 37.41-13.28 37.96-10.86 38.5-8.45 39.83-6.64 41.15-4.83 43.1-3.74 45.05-2.64 47.87-2.64 50.69-2.64 52.7-3.74 54.71-4.83 55.97-6.64 57.24-8.45 57.84-10.86 58.45-13.28 58.45-15.55 58.45-17.82 57.84-20.2 57.24-22.59 55.97-24.4 54.71-26.21 52.7-27.3 50.69-28.39 47.87-28.39 45.05-28.39 43.1-27.3 41.15-26.21 39.83-24.4 38.5-22.59 37.96-20.2ZM33.1-15.63L33.1-15.63Q33.1-18.97 34.08-21.95 35.05-24.94 37.01-27.07L37.01-27.07Q40.92-31.55 47.81-31.61L47.81-31.61Q54.83-31.61 58.79-27.07L58.79-27.07Q60.69-24.94 61.64-21.95 62.58-18.97 62.58-15.63L62.58-15.63Q62.58-12.24 61.64-9.17 60.69-6.09 58.79-4.02L58.79-4.02Q54.83 0.46 47.81 0.46L47.81 0.46Q40.86 0.46 37.01-4.02L37.01-4.02Q35.05-6.21 34.08-9.22 33.1-12.24 33.1-15.63ZM69.31-1.72L69.31-28.79Q69.31-29.89 70.05-30.57L70.05-30.57Q70.74-31.26 71.55-31.38L71.55-31.38Q73.16-31.38 74.08-30.11L74.08-30.11 90.74-5 90.74-29.54Q90.74-30.46 91.09-30.8L91.09-30.8Q91.72-31.38 92.32-31.38 92.93-31.38 93.27-31.26 93.62-31.15 93.85-30.92L93.85-30.92Q94.48-30.46 94.42-29.54L94.42-29.54 94.42-2.59Q94.42-0.86 92.75-0.17L92.75-0.17Q92.35 0 91.72 0L91.72 0Q90.34 0 89.31-1.26L89.31-1.26 73.04-26.03 73.04-1.72Q73.04-0.92 72.58-0.57L72.58-0.57Q71.89 0 71.14 0 70.4 0 69.85-0.43 69.31-0.86 69.31-1.72L69.31-1.72ZM102.87-1.9L102.87-29.48Q102.87-30.69 104.02-31.21L104.02-31.21Q104.36-31.26 104.99-31.32 105.62-31.38 106.17-30.92 106.72-30.46 106.72-29.48L106.72-29.48 106.72-1.9Q106.72-0.52 105.51-0.11L105.51-0.11Q105.16 0 104.59 0 104.02 0 103.44-0.46 102.87-0.92 102.87-1.9L102.87-1.9ZM113.78-15.52L113.78-15.52Q113.78-18.51 114.65-21.55 115.51-24.6 117.29-26.78L117.29-26.78Q121.08-31.61 128.09-31.61L128.09-31.61Q132.12-31.61 135.91-29.83L135.91-29.83Q136.89-29.43 136.89-28.51L136.89-28.51Q136.89-26.78 135.51-26.72L135.51-26.72Q135.22-26.72 134.99-26.78L134.99-26.78Q131.02-28.16 128.7-28.16 126.37-28.16 124.82-27.64 123.27-27.13 122.12-26.21 120.97-25.29 120.16-24.08 119.36-22.87 118.9-21.38L118.9-21.38Q117.92-18.62 117.92-15.52L117.92-15.52Q117.92-10.46 120.16-7.01L120.16-7.01Q122.81-2.93 128.32-2.93L128.32-2.93Q132.12-2.93 135.56-4.94L135.56-4.94Q136.02-5.06 136.46-5.06 136.89-5.06 137.26-4.66 137.63-4.25 137.63-3.62 137.63-2.99 137.17-2.44 136.71-1.9 135.94-1.47 135.16-1.03 134.21-0.69 133.27-0.34 132.23-0.11L132.23-0.11Q130.05 0.46 128.09 0.46L128.09 0.46Q121.02 0.46 117.29-4.31L117.29-4.31Q113.78-8.62 113.78-15.52ZM163.95 0L147.86 0Q146.54 0 146.02-1.15L146.02-1.15Q145.85-1.49 145.85-1.9L145.85-1.9 145.85-29.48Q145.85-30.8 147.06-31.21L147.06-31.21Q147.4-31.26 147.98-31.32 148.55-31.38 149.13-30.92 149.7-30.46 149.7-29.48L149.7-29.48 149.7-3.22 163.95-3.22Q164.82-3.22 165.19-2.73 165.56-2.24 165.56-1.64 165.56-1.03 165.16-0.52 164.76 0 163.95 0L163.95 0ZM189.93 0L173.03 0Q172.34 0 171.88-0.46L171.88-0.46Q171.08-1.15 171.08-1.9L171.08-1.9 171.08-29.43Q171.08-30.52 172.23-31.15L172.23-31.15Q172.57-31.26 172.92-31.38L172.92-31.38 189.3-31.38Q190.16-31.38 190.56-30.86 190.96-30.34 190.96-29.74 190.96-29.14 190.5-28.62 190.04-28.1 189.3-28.1L189.3-28.1 174.87-28.1 174.87-17.7 188.61-17.7Q189.47-17.7 189.87-17.21 190.27-16.72 190.27-16.09L190.27-16.09Q190.27-15.52 189.81-15.06 189.35-14.6 188.61-14.6L188.61-14.6 174.87-14.6 174.87-3.22 189.93-3.22Q190.73-3.22 191.13-2.7 191.54-2.18 191.54-1.55 191.54-0.92 191.11-0.46 190.67 0 189.93 0L189.93 0ZM220.56-29.08L210.21-13.33 210.21-1.9Q210.21-0.57 209.01-0.11L209.01-0.11Q208.66 0 208.09 0 207.51 0 206.88-0.46 206.25-0.92 206.25-1.9L206.25-1.9 206.25-13.28 196.07-28.74Q195.79-29.08 195.79-29.48 195.79-29.89 195.96-30.23 196.13-30.57 196.48-30.86L196.48-30.86Q197.17-31.38 197.86-31.38L197.86-31.38Q199.12-31.38 199.7-30.34L199.7-30.34 208.49-16.38 208.55-16.38 217.4-30.46Q217.97-31.38 219.01-31.38L219.01-31.38Q220.15-31.38 220.61-30.46L220.61-30.46Q220.84-30.17 220.84-29.89L220.84-29.89Q220.84-29.54 220.56-29.08L220.56-29.08Z" opacity="1" transform="matrix(1,0,0,1,0,0)" fill="#000000" class="undefined-text-0" data-fill-palette-color="primary" id="text-0"></path></svg></g></svg></g></svg></g></svg></g><g></g></svg></g></svg></g></svg></g><g><path xmlns="http://www.w3.org/2000/svg" d="M0 247.2v-247.2h395.52v247.2zM391.293 242.973v-238.746h-387.066v238.746z" fill="#000000" fill-rule="nonzero" stroke="none" stroke-width="1" stroke-linecap="butt" stroke-linejoin="miter" stroke-miterlimit="10" stroke-dasharray="" stroke-dashoffset="0" font-family="none" font-weight="none" font-size="none" text-anchor="none" style="mix-blend-mode: normal" data-fill-palette-color="tertiary"></path></g></svg></g><defs></defs></svg><rect width="395.52" height="247.2" fill="none" stroke="none" visibility="hidden"></rect></g></svg></g></svg>